<mxfile host="app.diagrams.net" modified="2024-04-23T00:36:16.128Z" agent="Mozilla/5.0 (Windows NT 10.0; Win64; x64) AppleWebKit/537.36 (KHTML, like Gecko) Chrome/124.0.0.0 Safari/537.36" etag="5IrpqvMywBL5dL-cwFzk" version="24.2.8" type="device">
  <diagram name="Página-1" id="D4J2osAbBlQSmxD3vtFa">
    <mxGraphModel dx="3235" dy="2686" grid="1" gridSize="10" guides="1" tooltips="1" connect="1" arrows="1" fold="1" page="1" pageScale="1" pageWidth="2000" pageHeight="2000" math="0" shadow="0">
      <root>
        <mxCell id="0" />
        <mxCell id="1" parent="0" />
        <mxCell id="RkzBuDmN0075OM32KLVm-18" style="edgeStyle=orthogonalEdgeStyle;rounded=0;orthogonalLoop=1;jettySize=auto;html=1;" edge="1" parent="1" source="RkzBuDmN0075OM32KLVm-1" target="RkzBuDmN0075OM32KLVm-2">
          <mxGeometry relative="1" as="geometry" />
        </mxCell>
        <mxCell id="RkzBuDmN0075OM32KLVm-19" style="edgeStyle=orthogonalEdgeStyle;rounded=0;orthogonalLoop=1;jettySize=auto;html=1;entryX=0.5;entryY=0;entryDx=0;entryDy=0;" edge="1" parent="1" source="RkzBuDmN0075OM32KLVm-1" target="RkzBuDmN0075OM32KLVm-3">
          <mxGeometry relative="1" as="geometry" />
        </mxCell>
        <mxCell id="RkzBuDmN0075OM32KLVm-1" value="PROYECTO&lt;div&gt;&lt;br&gt;&lt;/div&gt;" style="rounded=0;whiteSpace=wrap;html=1;" vertex="1" parent="1">
          <mxGeometry x="640" y="-80" width="120" height="60" as="geometry" />
        </mxCell>
        <mxCell id="RkzBuDmN0075OM32KLVm-20" style="edgeStyle=orthogonalEdgeStyle;rounded=0;orthogonalLoop=1;jettySize=auto;html=1;entryX=0.5;entryY=0;entryDx=0;entryDy=0;" edge="1" parent="1" source="RkzBuDmN0075OM32KLVm-2" target="RkzBuDmN0075OM32KLVm-4">
          <mxGeometry relative="1" as="geometry" />
        </mxCell>
        <mxCell id="RkzBuDmN0075OM32KLVm-21" style="edgeStyle=orthogonalEdgeStyle;rounded=0;orthogonalLoop=1;jettySize=auto;html=1;" edge="1" parent="1" source="RkzBuDmN0075OM32KLVm-2" target="RkzBuDmN0075OM32KLVm-5">
          <mxGeometry relative="1" as="geometry">
            <Array as="points">
              <mxPoint x="450" y="80" />
              <mxPoint x="450" y="80" />
            </Array>
          </mxGeometry>
        </mxCell>
        <mxCell id="RkzBuDmN0075OM32KLVm-22" style="edgeStyle=orthogonalEdgeStyle;rounded=0;orthogonalLoop=1;jettySize=auto;html=1;entryX=0.5;entryY=0;entryDx=0;entryDy=0;" edge="1" parent="1" source="RkzBuDmN0075OM32KLVm-2" target="RkzBuDmN0075OM32KLVm-6">
          <mxGeometry relative="1" as="geometry" />
        </mxCell>
        <mxCell id="RkzBuDmN0075OM32KLVm-42" style="edgeStyle=orthogonalEdgeStyle;rounded=0;orthogonalLoop=1;jettySize=auto;html=1;exitX=0.75;exitY=1;exitDx=0;exitDy=0;" edge="1" parent="1" source="RkzBuDmN0075OM32KLVm-2">
          <mxGeometry relative="1" as="geometry">
            <mxPoint x="450.00000000000045" y="50" as="targetPoint" />
          </mxGeometry>
        </mxCell>
        <mxCell id="RkzBuDmN0075OM32KLVm-2" value="APLICACION" style="rounded=0;whiteSpace=wrap;html=1;" vertex="1" parent="1">
          <mxGeometry x="390" width="120" height="60" as="geometry" />
        </mxCell>
        <mxCell id="RkzBuDmN0075OM32KLVm-3" value="MANUAL&amp;nbsp;&lt;div&gt;USUARIO&lt;div&gt;&lt;br&gt;&lt;/div&gt;&lt;/div&gt;" style="rounded=0;whiteSpace=wrap;html=1;" vertex="1" parent="1">
          <mxGeometry x="1000" y="20" width="120" height="60" as="geometry" />
        </mxCell>
        <mxCell id="RkzBuDmN0075OM32KLVm-23" style="edgeStyle=orthogonalEdgeStyle;rounded=0;orthogonalLoop=1;jettySize=auto;html=1;entryX=0.5;entryY=0;entryDx=0;entryDy=0;" edge="1" parent="1" source="RkzBuDmN0075OM32KLVm-4" target="RkzBuDmN0075OM32KLVm-7">
          <mxGeometry relative="1" as="geometry">
            <mxPoint x="100" y="200" as="targetPoint" />
            <Array as="points">
              <mxPoint x="70" y="130" />
            </Array>
          </mxGeometry>
        </mxCell>
        <mxCell id="RkzBuDmN0075OM32KLVm-27" style="edgeStyle=orthogonalEdgeStyle;rounded=0;orthogonalLoop=1;jettySize=auto;html=1;entryX=0.5;entryY=0;entryDx=0;entryDy=0;" edge="1" parent="1" source="RkzBuDmN0075OM32KLVm-4" target="RkzBuDmN0075OM32KLVm-38">
          <mxGeometry relative="1" as="geometry">
            <mxPoint x="300.00000000000045" y="220" as="targetPoint" />
            <Array as="points">
              <mxPoint x="360" y="140" />
            </Array>
          </mxGeometry>
        </mxCell>
        <mxCell id="RkzBuDmN0075OM32KLVm-4" value="MODULO&amp;nbsp;&lt;div&gt;DESARROLLO&lt;/div&gt;" style="rounded=0;whiteSpace=wrap;html=1;" vertex="1" parent="1">
          <mxGeometry x="120" y="110" width="120" height="60" as="geometry" />
        </mxCell>
        <mxCell id="RkzBuDmN0075OM32KLVm-5" value="MODULO&amp;nbsp;&lt;div&gt;DISEÑO&lt;/div&gt;" style="rounded=0;whiteSpace=wrap;html=1;" vertex="1" parent="1">
          <mxGeometry x="390" y="110" width="120" height="60" as="geometry" />
        </mxCell>
        <mxCell id="RkzBuDmN0075OM32KLVm-44" style="edgeStyle=orthogonalEdgeStyle;rounded=0;orthogonalLoop=1;jettySize=auto;html=1;" edge="1" parent="1" source="RkzBuDmN0075OM32KLVm-6" target="RkzBuDmN0075OM32KLVm-15">
          <mxGeometry relative="1" as="geometry" />
        </mxCell>
        <mxCell id="RkzBuDmN0075OM32KLVm-45" style="edgeStyle=orthogonalEdgeStyle;rounded=0;orthogonalLoop=1;jettySize=auto;html=1;" edge="1" parent="1" source="RkzBuDmN0075OM32KLVm-6" target="RkzBuDmN0075OM32KLVm-16">
          <mxGeometry relative="1" as="geometry" />
        </mxCell>
        <mxCell id="RkzBuDmN0075OM32KLVm-6" value="MODULO&lt;div&gt;PRUEBAS&lt;/div&gt;" style="rounded=0;whiteSpace=wrap;html=1;" vertex="1" parent="1">
          <mxGeometry x="600" y="110" width="120" height="60" as="geometry" />
        </mxCell>
        <mxCell id="RkzBuDmN0075OM32KLVm-29" style="edgeStyle=orthogonalEdgeStyle;rounded=0;orthogonalLoop=1;jettySize=auto;html=1;" edge="1" parent="1" source="RkzBuDmN0075OM32KLVm-7" target="RkzBuDmN0075OM32KLVm-12">
          <mxGeometry relative="1" as="geometry">
            <Array as="points">
              <mxPoint x="150" y="270" />
            </Array>
          </mxGeometry>
        </mxCell>
        <mxCell id="RkzBuDmN0075OM32KLVm-7" value="FUNCION&lt;div&gt;INICIAR&lt;/div&gt;&lt;div&gt;SESION&lt;/div&gt;" style="rounded=0;whiteSpace=wrap;html=1;" vertex="1" parent="1">
          <mxGeometry x="10" y="220" width="120" height="60" as="geometry" />
        </mxCell>
        <mxCell id="RkzBuDmN0075OM32KLVm-10" value="INICIAR SESION&lt;div&gt;FRONTEND&lt;/div&gt;" style="rounded=0;whiteSpace=wrap;html=1;" vertex="1" parent="1">
          <mxGeometry x="-70" y="340" width="120" height="60" as="geometry" />
        </mxCell>
        <mxCell id="RkzBuDmN0075OM32KLVm-12" value="INICIAR SESION&lt;div&gt;BACKEND&lt;/div&gt;" style="rounded=0;whiteSpace=wrap;html=1;" vertex="1" parent="1">
          <mxGeometry x="60" y="340" width="120" height="60" as="geometry" />
        </mxCell>
        <mxCell id="RkzBuDmN0075OM32KLVm-15" value="PLAN&lt;div&gt;PRUEBA&lt;/div&gt;" style="rounded=0;whiteSpace=wrap;html=1;" vertex="1" parent="1">
          <mxGeometry x="570" y="250" width="120" height="60" as="geometry" />
        </mxCell>
        <mxCell id="RkzBuDmN0075OM32KLVm-16" value="EJECUCION&lt;div&gt;PLAN PRUEBA&lt;/div&gt;" style="rounded=0;whiteSpace=wrap;html=1;" vertex="1" parent="1">
          <mxGeometry x="720" y="250" width="120" height="60" as="geometry" />
        </mxCell>
        <mxCell id="RkzBuDmN0075OM32KLVm-28" style="edgeStyle=orthogonalEdgeStyle;rounded=0;orthogonalLoop=1;jettySize=auto;html=1;entryX=0.324;entryY=0;entryDx=0;entryDy=0;entryPerimeter=0;exitX=0;exitY=0.75;exitDx=0;exitDy=0;" edge="1" parent="1" source="RkzBuDmN0075OM32KLVm-7" target="RkzBuDmN0075OM32KLVm-10">
          <mxGeometry relative="1" as="geometry">
            <mxPoint x="60" y="270" as="sourcePoint" />
            <mxPoint x="-31.159999999999854" y="326.7000000000003" as="targetPoint" />
            <Array as="points">
              <mxPoint x="10" y="271" />
              <mxPoint x="-31" y="271" />
            </Array>
          </mxGeometry>
        </mxCell>
        <mxCell id="RkzBuDmN0075OM32KLVm-37" style="edgeStyle=orthogonalEdgeStyle;rounded=0;orthogonalLoop=1;jettySize=auto;html=1;" edge="1" source="RkzBuDmN0075OM32KLVm-38" target="RkzBuDmN0075OM32KLVm-40" parent="1">
          <mxGeometry relative="1" as="geometry">
            <Array as="points">
              <mxPoint x="440" y="290" />
            </Array>
          </mxGeometry>
        </mxCell>
        <mxCell id="RkzBuDmN0075OM32KLVm-38" value="FUNCION&lt;div&gt;CERRAR&lt;/div&gt;&lt;div&gt;SESION&lt;/div&gt;" style="rounded=0;whiteSpace=wrap;html=1;" vertex="1" parent="1">
          <mxGeometry x="300" y="240" width="120" height="60" as="geometry" />
        </mxCell>
        <mxCell id="RkzBuDmN0075OM32KLVm-39" value="CERRAR SESION&lt;div&gt;FRONTEND&lt;/div&gt;" style="rounded=0;whiteSpace=wrap;html=1;" vertex="1" parent="1">
          <mxGeometry x="220" y="360" width="120" height="60" as="geometry" />
        </mxCell>
        <mxCell id="RkzBuDmN0075OM32KLVm-40" value="CERRAR SESION&lt;div&gt;BACKEND&lt;/div&gt;" style="rounded=0;whiteSpace=wrap;html=1;" vertex="1" parent="1">
          <mxGeometry x="350" y="360" width="120" height="60" as="geometry" />
        </mxCell>
        <mxCell id="RkzBuDmN0075OM32KLVm-41" style="edgeStyle=orthogonalEdgeStyle;rounded=0;orthogonalLoop=1;jettySize=auto;html=1;entryX=0.324;entryY=0;entryDx=0;entryDy=0;entryPerimeter=0;exitX=0;exitY=0.75;exitDx=0;exitDy=0;" edge="1" source="RkzBuDmN0075OM32KLVm-38" target="RkzBuDmN0075OM32KLVm-39" parent="1">
          <mxGeometry relative="1" as="geometry">
            <mxPoint x="350" y="290" as="sourcePoint" />
            <mxPoint x="258.84000000000015" y="346.7000000000003" as="targetPoint" />
            <Array as="points">
              <mxPoint x="300" y="291" />
              <mxPoint x="259" y="291" />
            </Array>
          </mxGeometry>
        </mxCell>
      </root>
    </mxGraphModel>
  </diagram>
</mxfile>
